# xmcd
#
# Track frame offsets:
#        150
#        15537
#        30662
#        46512
#        60362
#        78862
#        96475
#        115962
#        132387
#        147337
#        165400
#        185812
#        200987
#        217362
#
# Disc length: 3129 seconds
#
# Revision: 0
# Processed by: cddbd v1.5.1PL0 Copyright (c) Steve Scherf et al.
# Submitted via: ExactAudioCopy v0.95a4
#
DISCID=ca0c370e
DTITLE=THE BEATNUTS - WORLD FAMOUS CLASSICS 1993-1998
DYEAR=1999
DGENRE=Hip-Hop
TTITLE0=WORLD'S FAMOUS
TTITLE1=BLESS THE M.I.C.
TTITLE2=PROPS OVER HERE(REMIX)
TTITLE3=HERE'S A DRINK
TTITLE4=NO EQUAL
TTITLE5=FIND THAT
TTITLE6=NO EQUAL(REMIX)
TTITLE7=PSYCHO DWARF
TTITLE8=DO YOU BELIEVE?
TTITLE9=PROPS OVER HERE
TTITLE10=GET FUNKY(REMIX)
TTITLE11=REIGN OF THE TEC
TTITLE12=GET FUNKY
TTITLE13=GIVE ME THA ASS
EXTD=
EXTT0=
EXTT1=
EXTT2=
EXTT3=
EXTT4=
EXTT5=
EXTT6=
EXTT7=
EXTT8=
EXTT9=
EXTT10=
EXTT11=
EXTT12=
EXTT13=
PLAYORDER=
